<svg width="41" height="40" viewBox="0 0 41 40" fill="none" xmlns="http://www.w3.org/2000/svg">
<g clip-path="url(#clip0_3103_2194)">
<rect x="0.5" width="40" height="40" rx="20" fill="#F3F4F6"/>
<g clip-path="url(#clip1_3103_2194)">
<mask id="mask0_3103_2194" style="mask-type:alpha" maskUnits="userSpaceOnUse" x="0" y="0" width="41" height="40">
<path d="M40.5 20C40.5 8.9543 31.5457 0 20.5 0C9.4543 0 0.5 8.9543 0.5 20C0.5 31.0457 9.4543 40 20.5 40C31.5457 40 40.5 31.0457 40.5 20Z" fill="white"/>
</mask>
<g mask="url(#mask0_3103_2194)">
<path d="M40.5 0H0.5V40H40.5V0Z" fill="#F85931"/>
<path d="M36.6803 8.24413C30.1879 -0.69203 17.6805 -2.67301 8.7443 3.81949C-0.19185 10.312 -2.17283 22.8194 4.31967 31.7555C10.8122 40.6917 23.3196 42.6727 32.2557 36.1802C41.1919 29.6877 43.1728 17.1803 36.6803 8.24413Z" fill="#009989"/>
<path d="M12.6528 19.7651C14.7921 21.0286 17.0089 21.1836 19.3033 20.2302" stroke="white" stroke-width="2.22222" stroke-linecap="round"/>
<path d="M9.08339 15.0601C9.1262 14.448 8.78871 13.9257 8.32959 13.8936C7.87048 13.8615 7.46359 14.3317 7.42078 14.9439C7.37798 15.556 7.71546 16.0783 8.17458 16.1104C8.6337 16.1425 9.04058 15.6723 9.08339 15.0601Z" fill="white"/>
<path d="M24.601 16.1451C24.6438 15.5329 24.3063 15.0106 23.8472 14.9785C23.3881 14.9464 22.9812 15.4167 22.9384 16.0288C22.8956 16.641 23.233 17.1632 23.6922 17.1954C24.1513 17.2275 24.5582 16.7572 24.601 16.1451Z" fill="white"/>
</g>
</g>
</g>
<defs>
<clipPath id="clip0_3103_2194">
<rect x="0.5" width="40" height="40" rx="20" fill="white"/>
</clipPath>
<clipPath id="clip1_3103_2194">
<rect width="40" height="40" fill="white" transform="translate(0.5)"/>
</clipPath>
</defs>
</svg>
